<svg width="905" height="286" viewBox="0 0 905 286" fill="none" xmlns="http://www.w3.org/2000/svg">
<g clip-path="url(#clip0)">
<rect width="905" height="286" fill="#000931"/>
<mask id="mask0" mask-type="alpha" maskUnits="userSpaceOnUse" x="263" y="79" width="122" height="148">
<path d="M338.157 167.012V178.111H340.571C364.572 178.111 384.029 197.567 384.029 221.568V227H263.314V221.568C263.314 197.567 282.771 178.111 306.771 178.111H309.186V167.012C298.782 162.069 291.303 151.968 290.056 140.014C286.54 139.517 283.836 136.496 283.836 132.843V124.393C283.836 120.804 286.446 117.825 289.871 117.25V113.529C289.871 94.8613 305.004 79.7286 323.671 79.7286C342.339 79.7286 357.471 94.8613 357.471 113.529V117.25C360.897 117.825 363.507 120.804 363.507 124.393V132.843C363.507 136.496 360.803 139.517 357.287 140.014C356.04 151.968 348.561 162.069 338.157 167.012Z" fill="white"/>
</mask>
<g mask="url(#mask0)">
<path d="M338.157 167.012V178.111H340.571C364.572 178.111 384.029 197.567 384.029 221.568V227H263.314V221.568C263.314 197.567 282.771 178.111 306.771 178.111H309.186V167.012C298.782 162.069 291.303 151.968 290.056 140.014C286.54 139.517 283.836 136.496 283.836 132.843V124.393C283.836 120.804 286.446 117.825 289.871 117.25V113.529C289.871 94.8613 305.004 79.7286 323.671 79.7286C342.339 79.7286 357.471 94.8613 357.471 113.529V117.25C360.897 117.825 363.507 120.804 363.507 124.393V132.843C363.507 136.496 360.803 139.517 357.287 140.014C356.04 151.968 348.561 162.069 338.157 167.012Z" fill="#D0C6AC"/>
<path d="M422.657 79.7286H263.314V248.729H422.657V79.7286Z" fill="#D08B5B"/>
<path fill-rule="evenodd" clip-rule="evenodd" d="M357.471 127.411V141.293C357.471 159.96 342.339 175.093 323.671 175.093C305.004 175.093 289.871 159.96 289.871 141.293V127.411V136.464C289.871 155.132 305.004 170.264 323.671 170.264C342.339 170.264 357.471 155.132 357.471 136.464V127.411Z" fill="black" fill-opacity="0.1"/>
</g>
<mask id="mask1" mask-type="alpha" maskUnits="userSpaceOnUse" x="263" y="168" width="122" height="59">
<path fill-rule="evenodd" clip-rule="evenodd" d="M309.186 168.496C298.37 169.707 290.04 173.012 289.874 181.518C274.267 188.111 263.314 203.56 263.314 221.568V227H384.029V221.568C384.029 203.56 373.076 188.111 357.469 181.518C357.302 173.012 348.972 169.707 338.157 168.496V179.921C338.157 187.922 331.672 194.407 323.671 194.407C315.671 194.407 309.186 187.922 309.186 179.921V168.496Z" fill="white"/>
</mask>
<g mask="url(#mask1)">
<path fill-rule="evenodd" clip-rule="evenodd" d="M309.186 168.496C298.37 169.707 290.04 173.012 289.874 181.518C274.267 188.111 263.314 203.56 263.314 221.568V227H384.029V221.568C384.029 203.56 373.076 188.111 357.469 181.518C357.302 173.012 348.972 169.707 338.157 168.496V179.921C338.157 187.922 331.672 194.407 323.671 194.407C315.671 194.407 309.186 187.922 309.186 179.921V168.496Z" fill="#B7C1DB"/>
<path d="M403.343 160.607H244V227H403.343V160.607Z" fill="#25557C"/>
<path fill-rule="evenodd" clip-rule="evenodd" d="M305.564 197.871V227H301.339V195.705C302.669 196.496 304.084 197.22 305.564 197.871ZM346.003 195.705V220.059C346.003 221.226 345.058 222.171 343.891 222.171C342.724 222.171 341.778 221.226 341.778 220.059V197.871C343.259 197.22 344.673 196.496 346.003 195.705Z" fill="#F4F4F4"/>
<path fill-rule="evenodd" clip-rule="evenodd" d="M298.901 168.287C289.817 170.005 283.534 173.429 283.534 180.107C283.534 192.005 303.475 201.65 323.671 201.65C343.868 201.65 363.809 192.005 363.809 180.107C363.809 173.429 357.526 170.005 348.442 168.287C353.925 170.309 357.471 173.708 357.471 179.364C357.471 191.672 340.679 201.65 323.671 201.65C306.664 201.65 289.871 191.672 289.871 179.364C289.871 173.708 293.417 170.309 298.901 168.287Z" fill="black" fill-opacity="0.16"/>
</g>
<mask id="mask2" mask-type="alpha" maskUnits="userSpaceOnUse" x="312" y="146" width="24" height="13">
<path fill-rule="evenodd" clip-rule="evenodd" d="M312.275 148.009C312.913 153.738 317.772 158.193 323.671 158.193C329.589 158.193 334.46 153.711 335.074 147.956C335.123 147.493 334.606 146.725 333.958 146.725C324.968 146.725 318.081 146.725 313.463 146.725C312.811 146.725 312.211 147.436 312.275 148.009Z" fill="white"/>
</mask>
<g mask="url(#mask2)">
<path fill-rule="evenodd" clip-rule="evenodd" d="M312.275 148.009C312.913 153.738 317.772 158.193 323.671 158.193C329.589 158.193 334.46 153.711 335.074 147.956C335.123 147.493 334.606 146.725 333.958 146.725C324.968 146.725 318.081 146.725 313.463 146.725C312.811 146.725 312.211 147.436 312.275 148.009Z" fill="black" fill-opacity="0.7"/>
<path d="M330.311 140.086H317.636C315.969 140.086 314.618 141.437 314.618 143.104V146.725C314.618 148.392 315.969 149.743 317.636 149.743H330.311C331.977 149.743 333.329 148.392 333.329 146.725V143.104C333.329 141.437 331.977 140.086 330.311 140.086Z" fill="white"/>
<path d="M320.654 166.643C324.32 166.643 327.293 163.67 327.293 160.004C327.293 156.337 324.32 153.364 320.654 153.364C316.987 153.364 314.014 156.337 314.014 160.004C314.014 163.67 316.987 166.643 320.654 166.643Z" fill="#FF4F6D"/>
<path d="M326.689 166.643C330.356 166.643 333.329 163.67 333.329 160.004C333.329 156.337 330.356 153.364 326.689 153.364C323.022 153.364 320.05 156.337 320.05 160.004C320.05 163.67 323.022 166.643 326.689 166.643Z" fill="#FF4F6D"/>
</g>
<path fill-rule="evenodd" clip-rule="evenodd" d="M316.429 136.464C316.429 139.131 319.671 141.293 323.671 141.293C327.672 141.293 330.914 139.131 330.914 136.464" fill="black" fill-opacity="0.16"/>
<path d="M307.979 129.221C309.979 129.221 311.6 127.6 311.6 125.6C311.6 123.6 309.979 121.979 307.979 121.979C305.979 121.979 304.357 123.6 304.357 125.6C304.357 127.6 305.979 129.221 307.979 129.221Z" fill="black" fill-opacity="0.6"/>
<path d="M339.364 129.221C341.364 129.221 342.986 127.6 342.986 125.6C342.986 123.6 341.364 121.979 339.364 121.979C337.364 121.979 335.743 123.6 335.743 125.6C335.743 127.6 337.364 129.221 339.364 129.221Z" fill="black" fill-opacity="0.6"/>
<path d="M299.305 117.849C301.668 114.524 308.146 112.66 313.726 114.03C314.374 114.189 315.028 113.793 315.187 113.146C315.346 112.498 314.95 111.845 314.302 111.686C307.822 110.094 300.321 112.253 297.337 116.451C296.951 116.994 297.079 117.748 297.622 118.134C298.166 118.52 298.919 118.393 299.305 117.849Z" fill="black" fill-opacity="0.6"/>
<path d="M348.038 117.849C345.675 114.524 339.197 112.66 333.617 114.03C332.969 114.189 332.315 113.793 332.156 113.146C331.997 112.498 332.393 111.845 333.041 111.686C339.521 110.094 347.023 112.253 350.006 116.451C350.392 116.994 350.264 117.748 349.721 118.134C349.177 118.52 348.424 118.393 348.038 117.849Z" fill="black" fill-opacity="0.6"/>
<mask id="mask3" mask-type="alpha" maskUnits="userSpaceOnUse" x="244" y="58" width="160" height="169">
<path d="M403.343 58H244V227H403.343V58Z" fill="white"/>
</mask>
<g mask="url(#mask3)">
<mask id="mask4" mask-type="alpha" maskUnits="userSpaceOnUse" x="286" y="64" width="76" height="55">
<path fill-rule="evenodd" clip-rule="evenodd" d="M354.26 81.5084C357.523 78.5206 358.309 72.4625 356.456 68.5319C354.182 63.7061 349.565 63.1015 345.142 65.2239C340.972 67.2247 337.261 67.8912 332.695 66.9218C328.314 65.9917 324.158 64.3512 319.63 64.0817C312.19 63.6391 304.963 66.3984 299.893 71.9602C298.925 73.0212 298.146 74.2344 297.409 75.464C296.819 76.4478 296.155 77.5034 295.904 78.6374C295.785 79.1767 296.007 80.5071 295.738 80.9489C295.448 81.426 294.353 81.8636 293.886 82.2176C292.94 82.9351 292.121 83.7447 291.363 84.6604C289.754 86.6049 288.868 88.6359 288.123 91.0412C285.647 99.0355 285.437 108.544 288.638 116.394C289.065 117.44 290.388 119.624 291.165 117.382C291.319 116.939 290.963 115.454 290.964 115.007C290.967 113.366 291.873 102.496 295.821 96.4071C297.106 94.4251 303.047 87.003 304.261 86.9434C304.904 87.9652 311.431 94.4934 328.369 93.7283C336.012 93.3832 341.889 89.9495 343.3 88.4611C343.921 91.8005 351.142 96.8 352.242 98.8571C355.421 104.8 356.126 117.147 357.339 117.124C358.553 117.101 359.424 113.963 359.673 113.364C361.527 108.912 361.843 103.325 361.645 98.541C361.387 92.3833 358.845 85.7292 354.26 81.5084Z" fill="white"/>
</mask>
<g mask="url(#mask4)">
<path fill-rule="evenodd" clip-rule="evenodd" d="M354.26 81.5084C357.523 78.5206 358.309 72.4625 356.456 68.5319C354.182 63.7061 349.565 63.1015 345.142 65.2239C340.972 67.2247 337.261 67.8912 332.695 66.9218C328.314 65.9917 324.158 64.3512 319.63 64.0817C312.19 63.6391 304.963 66.3984 299.893 71.9602C298.925 73.0212 298.146 74.2344 297.409 75.464C296.819 76.4478 296.155 77.5034 295.904 78.6374C295.785 79.1767 296.007 80.5071 295.738 80.9489C295.448 81.426 294.353 81.8636 293.886 82.2176C292.94 82.9351 292.121 83.7447 291.363 84.6604C289.754 86.6049 288.868 88.6359 288.123 91.0412C285.647 99.0355 285.437 108.544 288.638 116.394C289.065 117.44 290.388 119.624 291.165 117.382C291.319 116.939 290.963 115.454 290.964 115.007C290.967 113.366 291.873 102.496 295.821 96.4071C297.106 94.4251 303.047 87.003 304.261 86.9434C304.904 87.9652 311.431 94.4934 328.369 93.7283C336.012 93.3832 341.889 89.9495 343.3 88.4611C343.921 91.8005 351.142 96.8 352.242 98.8571C355.421 104.8 356.126 117.147 357.339 117.124C358.553 117.101 359.424 113.963 359.673 113.364C361.527 108.912 361.843 103.325 361.645 98.541C361.387 92.3833 358.845 85.7292 354.26 81.5084Z" fill="#28354B"/>
<path d="M402.739 58H243.396V227H402.739V58Z" fill="#2C1B18"/>
</g>
</g>
<path d="M433.616 133.8V152H430.236V144.2H420.824V152H417.444V133.8H420.824V141.314H430.236V133.8H433.616ZM451.233 145.136C451.233 145.361 451.215 145.682 451.181 146.098H440.287C440.477 147.121 440.971 147.935 441.769 148.542C442.583 149.131 443.589 149.426 444.785 149.426C446.31 149.426 447.567 148.923 448.555 147.918L450.297 149.92C449.673 150.665 448.884 151.229 447.931 151.61C446.977 151.991 445.903 152.182 444.707 152.182C443.181 152.182 441.838 151.879 440.677 151.272C439.515 150.665 438.614 149.825 437.973 148.75C437.349 147.658 437.037 146.427 437.037 145.058C437.037 143.706 437.34 142.493 437.947 141.418C438.571 140.326 439.429 139.477 440.521 138.87C441.613 138.263 442.843 137.96 444.213 137.96C445.565 137.96 446.769 138.263 447.827 138.87C448.901 139.459 449.733 140.3 450.323 141.392C450.929 142.467 451.233 143.715 451.233 145.136ZM444.213 140.56C443.173 140.56 442.289 140.872 441.561 141.496C440.85 142.103 440.417 142.917 440.261 143.94H448.139C448 142.935 447.575 142.12 446.865 141.496C446.154 140.872 445.27 140.56 444.213 140.56ZM454.355 132.708H457.605V152H454.355V132.708ZM461.87 132.708H465.12V152H461.87V132.708ZM475.626 152.182C474.222 152.182 472.957 151.879 471.83 151.272C470.703 150.665 469.819 149.825 469.178 148.75C468.554 147.658 468.242 146.427 468.242 145.058C468.242 143.689 468.554 142.467 469.178 141.392C469.819 140.317 470.703 139.477 471.83 138.87C472.957 138.263 474.222 137.96 475.626 137.96C477.047 137.96 478.321 138.263 479.448 138.87C480.575 139.477 481.45 140.317 482.074 141.392C482.715 142.467 483.036 143.689 483.036 145.058C483.036 146.427 482.715 147.658 482.074 148.75C481.45 149.825 480.575 150.665 479.448 151.272C478.321 151.879 477.047 152.182 475.626 152.182ZM475.626 149.4C476.822 149.4 477.81 149.001 478.59 148.204C479.37 147.407 479.76 146.358 479.76 145.058C479.76 143.758 479.37 142.709 478.59 141.912C477.81 141.115 476.822 140.716 475.626 140.716C474.43 140.716 473.442 141.115 472.662 141.912C471.899 142.709 471.518 143.758 471.518 145.058C471.518 146.358 471.899 147.407 472.662 148.204C473.442 149.001 474.43 149.4 475.626 149.4ZM497.333 136.66H491.301V133.8H506.745V136.66H500.713V152H497.333V136.66ZM516.848 137.96C518.599 137.96 520.003 138.471 521.06 139.494C522.117 140.517 522.646 142.033 522.646 144.044V152H519.396V144.46C519.396 143.247 519.11 142.337 518.538 141.73C517.966 141.106 517.151 140.794 516.094 140.794C514.898 140.794 513.953 141.158 513.26 141.886C512.567 142.597 512.22 143.628 512.22 144.98V152H508.97V132.708H512.22V139.728C512.757 139.156 513.416 138.723 514.196 138.428C514.993 138.116 515.877 137.96 516.848 137.96ZM539.948 145.136C539.948 145.361 539.93 145.682 539.896 146.098H529.002C529.192 147.121 529.686 147.935 530.484 148.542C531.298 149.131 532.304 149.426 533.5 149.426C535.025 149.426 536.282 148.923 537.27 147.918L539.012 149.92C538.388 150.665 537.599 151.229 536.646 151.61C535.692 151.991 534.618 152.182 533.422 152.182C531.896 152.182 530.553 151.879 529.392 151.272C528.23 150.665 527.329 149.825 526.688 148.75C526.064 147.658 525.752 146.427 525.752 145.058C525.752 143.706 526.055 142.493 526.662 141.418C527.286 140.326 528.144 139.477 529.236 138.87C530.328 138.263 531.558 137.96 532.928 137.96C534.28 137.96 535.484 138.263 536.542 138.87C537.616 139.459 538.448 140.3 539.038 141.392C539.644 142.467 539.948 143.715 539.948 145.136ZM532.928 140.56C531.888 140.56 531.004 140.872 530.276 141.496C529.565 142.103 529.132 142.917 528.976 143.94H536.854C536.715 142.935 536.29 142.12 535.58 141.496C534.869 140.872 533.985 140.56 532.928 140.56ZM546.164 140.144C547.1 138.688 548.746 137.96 551.104 137.96V141.054C550.826 141.002 550.575 140.976 550.35 140.976C549.084 140.976 548.096 141.349 547.386 142.094C546.675 142.822 546.32 143.879 546.32 145.266V152H543.07V138.116H546.164V140.144ZM566.786 145.136C566.786 145.361 566.768 145.682 566.734 146.098H555.84C556.03 147.121 556.524 147.935 557.322 148.542C558.136 149.131 559.142 149.426 560.338 149.426C561.863 149.426 563.12 148.923 564.108 147.918L565.85 149.92C565.226 150.665 564.437 151.229 563.484 151.61C562.53 151.991 561.456 152.182 560.26 152.182C558.734 152.182 557.391 151.879 556.23 151.272C555.068 150.665 554.167 149.825 553.526 148.75C552.902 147.658 552.59 146.427 552.59 145.058C552.59 143.706 552.893 142.493 553.5 141.418C554.124 140.326 554.982 139.477 556.074 138.87C557.166 138.263 558.396 137.96 559.766 137.96C561.118 137.96 562.322 138.263 563.38 138.87C564.454 139.459 565.286 140.3 565.876 141.392C566.482 142.467 566.786 143.715 566.786 145.136ZM559.766 140.56C558.726 140.56 557.842 140.872 557.114 141.496C556.403 142.103 555.97 142.917 555.814 143.94H563.692C563.553 142.935 563.128 142.12 562.418 141.496C561.707 140.872 560.823 140.56 559.766 140.56ZM569.491 133.8H573.339L572.689 145.968H570.115L569.491 133.8ZM571.415 152.182C570.809 152.182 570.306 151.991 569.907 151.61C569.509 151.211 569.309 150.726 569.309 150.154C569.309 149.582 569.509 149.105 569.907 148.724C570.306 148.343 570.809 148.152 571.415 148.152C572.005 148.152 572.49 148.343 572.871 148.724C573.27 149.105 573.469 149.582 573.469 150.154C573.469 150.726 573.27 151.211 572.871 151.61C572.49 151.991 572.005 152.182 571.415 152.182Z" fill="white"/>
<rect x="-16" y="19" width="300" height="11" rx="5.5" fill="white" fill-opacity="0.16"/>
<rect x="298" y="19" width="11" height="11" rx="5.5" fill="white" fill-opacity="0.16"/>
<rect x="317" y="19" width="11" height="11" rx="5.5" fill="white" fill-opacity="0.16"/>
<rect x="336" y="19" width="11" height="11" rx="5.5" fill="white" fill-opacity="0.16"/>
<rect x="631" y="257" width="11" height="11" rx="5.5" fill="white" fill-opacity="0.16"/>
<rect x="650" y="257" width="11" height="11" rx="5.5" fill="white" fill-opacity="0.16"/>
<rect x="669" y="257" width="11" height="11" rx="5.5" fill="white" fill-opacity="0.16"/>
<rect x="694" y="258" width="277" height="9" rx="4.5" fill="white" fill-opacity="0.16"/>
</g>
<defs>
<clipPath id="clip0">
<rect width="905" height="286" fill="white"/>
</clipPath>
</defs>
</svg>
