<svg width="905" height="286" viewBox="0 0 905 286" fill="none" xmlns="http://www.w3.org/2000/svg">
<g clip-path="url(#clip0)">
<rect width="905" height="286" fill="#000931"/>
<mask id="mask0" mask-type="alpha" maskUnits="userSpaceOnUse" x="259" y="79" width="122" height="148">
<path d="M334.157 167.012V178.111H336.571C360.572 178.111 380.029 197.567 380.029 221.568V227H259.314V221.568C259.314 197.567 278.771 178.111 302.771 178.111H305.186V167.012C294.782 162.069 287.303 151.968 286.056 140.014C282.54 139.517 279.836 136.496 279.836 132.843V124.393C279.836 120.804 282.446 117.825 285.871 117.25V113.529C285.871 94.8613 301.004 79.7286 319.671 79.7286C338.339 79.7286 353.471 94.8613 353.471 113.529V117.25C356.897 117.825 359.507 120.804 359.507 124.393V132.843C359.507 136.496 356.803 139.517 353.287 140.014C352.04 151.968 344.561 162.069 334.157 167.012Z" fill="white"/>
</mask>
<g mask="url(#mask0)">
<path d="M334.157 167.012V178.111H336.571C360.572 178.111 380.029 197.567 380.029 221.568V227H259.314V221.568C259.314 197.567 278.771 178.111 302.771 178.111H305.186V167.012C294.782 162.069 287.303 151.968 286.056 140.014C282.54 139.517 279.836 136.496 279.836 132.843V124.393C279.836 120.804 282.446 117.825 285.871 117.25V113.529C285.871 94.8613 301.004 79.7286 319.671 79.7286C338.339 79.7286 353.471 94.8613 353.471 113.529V117.25C356.897 117.825 359.507 120.804 359.507 124.393V132.843C359.507 136.496 356.803 139.517 353.287 140.014C352.04 151.968 344.561 162.069 334.157 167.012Z" fill="#D0C6AC"/>
<path d="M418.657 79.7286H259.314V248.729H418.657V79.7286Z" fill="#D08B5B"/>
<path fill-rule="evenodd" clip-rule="evenodd" d="M353.471 127.411V141.293C353.471 159.96 338.339 175.093 319.671 175.093C301.004 175.093 285.871 159.96 285.871 141.293V127.411V136.464C285.871 155.132 301.004 170.264 319.671 170.264C338.339 170.264 353.471 155.132 353.471 136.464V127.411Z" fill="black" fill-opacity="0.1"/>
</g>
<mask id="mask1" mask-type="alpha" maskUnits="userSpaceOnUse" x="259" y="168" width="122" height="59">
<path fill-rule="evenodd" clip-rule="evenodd" d="M305.186 168.496C294.37 169.707 286.04 173.012 285.874 181.518C270.267 188.111 259.314 203.56 259.314 221.568V227H380.029V221.568C380.029 203.56 369.076 188.111 353.469 181.518C353.303 173.012 344.972 169.707 334.157 168.496V179.921C334.157 187.922 327.672 194.407 319.671 194.407C311.671 194.407 305.186 187.922 305.186 179.921V168.496Z" fill="white"/>
</mask>
<g mask="url(#mask1)">
<path fill-rule="evenodd" clip-rule="evenodd" d="M305.186 168.496C294.37 169.707 286.04 173.012 285.874 181.518C270.267 188.111 259.314 203.56 259.314 221.568V227H380.029V221.568C380.029 203.56 369.076 188.111 353.469 181.518C353.303 173.012 344.972 169.707 334.157 168.496V179.921C334.157 187.922 327.672 194.407 319.671 194.407C311.671 194.407 305.186 187.922 305.186 179.921V168.496Z" fill="#B7C1DB"/>
<path d="M399.343 160.607H240V227H399.343V160.607Z" fill="#25557C"/>
<path fill-rule="evenodd" clip-rule="evenodd" d="M301.564 197.871V227H297.339V195.705C298.669 196.496 300.084 197.22 301.564 197.871ZM342.004 195.705V220.059C342.004 221.226 341.058 222.171 339.891 222.171C338.724 222.171 337.779 221.226 337.779 220.059V197.871C339.259 197.22 340.673 196.496 342.004 195.705Z" fill="#F4F4F4"/>
<path fill-rule="evenodd" clip-rule="evenodd" d="M294.901 168.287C285.817 170.005 279.534 173.429 279.534 180.107C279.534 192.005 299.475 201.65 319.671 201.65C339.868 201.65 359.809 192.005 359.809 180.107C359.809 173.429 353.526 170.005 344.442 168.287C349.925 170.309 353.471 173.708 353.471 179.364C353.471 191.672 336.679 201.65 319.671 201.65C302.664 201.65 285.871 191.672 285.871 179.364C285.871 173.708 289.417 170.309 294.901 168.287Z" fill="black" fill-opacity="0.16"/>
</g>
<mask id="mask2" mask-type="alpha" maskUnits="userSpaceOnUse" x="308" y="146" width="24" height="13">
<path fill-rule="evenodd" clip-rule="evenodd" d="M308.275 148.009C308.913 153.738 313.772 158.193 319.671 158.193C325.589 158.193 330.46 153.711 331.074 147.956C331.123 147.493 330.606 146.725 329.958 146.725C320.968 146.725 314.081 146.725 309.463 146.725C308.811 146.725 308.211 147.436 308.275 148.009Z" fill="white"/>
</mask>
<g mask="url(#mask2)">
<path fill-rule="evenodd" clip-rule="evenodd" d="M308.275 148.009C308.913 153.738 313.772 158.193 319.671 158.193C325.589 158.193 330.46 153.711 331.074 147.956C331.123 147.493 330.606 146.725 329.958 146.725C320.968 146.725 314.081 146.725 309.463 146.725C308.811 146.725 308.211 147.436 308.275 148.009Z" fill="black" fill-opacity="0.7"/>
<path d="M326.311 140.086H313.636C311.969 140.086 310.618 141.437 310.618 143.104V146.725C310.618 148.392 311.969 149.743 313.636 149.743H326.311C327.977 149.743 329.329 148.392 329.329 146.725V143.104C329.329 141.437 327.977 140.086 326.311 140.086Z" fill="white"/>
<path d="M316.654 166.643C320.32 166.643 323.293 163.67 323.293 160.004C323.293 156.337 320.32 153.364 316.654 153.364C312.987 153.364 310.014 156.337 310.014 160.004C310.014 163.67 312.987 166.643 316.654 166.643Z" fill="#FF4F6D"/>
<path d="M322.689 166.643C326.356 166.643 329.329 163.67 329.329 160.004C329.329 156.337 326.356 153.364 322.689 153.364C319.023 153.364 316.05 156.337 316.05 160.004C316.05 163.67 319.023 166.643 322.689 166.643Z" fill="#FF4F6D"/>
</g>
<path fill-rule="evenodd" clip-rule="evenodd" d="M312.429 136.464C312.429 139.131 315.671 141.293 319.671 141.293C323.672 141.293 326.914 139.131 326.914 136.464" fill="black" fill-opacity="0.16"/>
<path d="M303.979 129.221C305.979 129.221 307.6 127.6 307.6 125.6C307.6 123.6 305.979 121.979 303.979 121.979C301.979 121.979 300.357 123.6 300.357 125.6C300.357 127.6 301.979 129.221 303.979 129.221Z" fill="black" fill-opacity="0.6"/>
<path d="M335.364 129.221C337.364 129.221 338.986 127.6 338.986 125.6C338.986 123.6 337.364 121.979 335.364 121.979C333.364 121.979 331.743 123.6 331.743 125.6C331.743 127.6 333.364 129.221 335.364 129.221Z" fill="black" fill-opacity="0.6"/>
<path d="M295.305 117.849C297.668 114.524 304.146 112.66 309.726 114.03C310.374 114.189 311.028 113.793 311.187 113.146C311.346 112.498 310.95 111.845 310.302 111.686C303.822 110.094 296.321 112.253 293.337 116.451C292.951 116.994 293.079 117.748 293.622 118.134C294.166 118.52 294.919 118.393 295.305 117.849Z" fill="black" fill-opacity="0.6"/>
<path d="M344.038 117.849C341.675 114.524 335.197 112.66 329.617 114.03C328.969 114.189 328.315 113.793 328.156 113.146C327.997 112.498 328.393 111.845 329.041 111.686C335.521 110.094 343.023 112.253 346.006 116.451C346.392 116.994 346.264 117.748 345.721 118.134C345.177 118.52 344.424 118.393 344.038 117.849Z" fill="black" fill-opacity="0.6"/>
<mask id="mask3" mask-type="alpha" maskUnits="userSpaceOnUse" x="240" y="58" width="160" height="169">
<path d="M399.343 58H240V227H399.343V58Z" fill="white"/>
</mask>
<g mask="url(#mask3)">
<mask id="mask4" mask-type="alpha" maskUnits="userSpaceOnUse" x="282" y="64" width="76" height="55">
<path fill-rule="evenodd" clip-rule="evenodd" d="M350.26 81.5084C353.523 78.5206 354.309 72.4625 352.456 68.5319C350.182 63.7061 345.565 63.1015 341.142 65.2239C336.972 67.2247 333.261 67.8912 328.695 66.9218C324.314 65.9917 320.158 64.3512 315.63 64.0817C308.19 63.6391 300.963 66.3984 295.893 71.9602C294.925 73.0212 294.146 74.2344 293.409 75.464C292.819 76.4478 292.155 77.5034 291.904 78.6374C291.785 79.1767 292.007 80.5071 291.738 80.9489C291.448 81.426 290.353 81.8636 289.886 82.2176C288.94 82.9351 288.121 83.7447 287.363 84.6604C285.754 86.6049 284.868 88.6359 284.123 91.0412C281.647 99.0355 281.437 108.544 284.638 116.394C285.065 117.44 286.388 119.624 287.165 117.382C287.319 116.939 286.963 115.454 286.964 115.007C286.967 113.366 287.873 102.496 291.821 96.4071C293.106 94.4251 299.047 87.003 300.261 86.9434C300.904 87.9652 307.431 94.4934 324.369 93.7283C332.012 93.3832 337.889 89.9495 339.3 88.4611C339.921 91.8005 347.142 96.8 348.242 98.8571C351.421 104.8 352.126 117.147 353.339 117.124C354.553 117.101 355.424 113.963 355.673 113.364C357.527 108.912 357.843 103.325 357.645 98.541C357.387 92.3833 354.845 85.7292 350.26 81.5084Z" fill="white"/>
</mask>
<g mask="url(#mask4)">
<path fill-rule="evenodd" clip-rule="evenodd" d="M350.26 81.5084C353.523 78.5206 354.309 72.4625 352.456 68.5319C350.182 63.7061 345.565 63.1015 341.142 65.2239C336.972 67.2247 333.261 67.8912 328.695 66.9218C324.314 65.9917 320.158 64.3512 315.63 64.0817C308.19 63.6391 300.963 66.3984 295.893 71.9602C294.925 73.0212 294.146 74.2344 293.409 75.464C292.819 76.4478 292.155 77.5034 291.904 78.6374C291.785 79.1767 292.007 80.5071 291.738 80.9489C291.448 81.426 290.353 81.8636 289.886 82.2176C288.94 82.9351 288.121 83.7447 287.363 84.6604C285.754 86.6049 284.868 88.6359 284.123 91.0412C281.647 99.0355 281.437 108.544 284.638 116.394C285.065 117.44 286.388 119.624 287.165 117.382C287.319 116.939 286.963 115.454 286.964 115.007C286.967 113.366 287.873 102.496 291.821 96.4071C293.106 94.4251 299.047 87.003 300.261 86.9434C300.904 87.9652 307.431 94.4934 324.369 93.7283C332.012 93.3832 337.889 89.9495 339.3 88.4611C339.921 91.8005 347.142 96.8 348.242 98.8571C351.421 104.8 352.126 117.147 353.339 117.124C354.553 117.101 355.424 113.963 355.673 113.364C357.527 108.912 357.843 103.325 357.645 98.541C357.387 92.3833 354.845 85.7292 350.26 81.5084Z" fill="#28354B"/>
<path d="M398.739 58H239.396V227H398.739V58Z" fill="#2C1B18"/>
</g>
</g>
<path d="M433.616 121.8V140H430.236V132.2H420.824V140H417.444V121.8H420.824V129.314H430.236V121.8H433.616ZM451.233 133.136C451.233 133.361 451.215 133.682 451.181 134.098H440.287C440.477 135.121 440.971 135.935 441.769 136.542C442.583 137.131 443.589 137.426 444.785 137.426C446.31 137.426 447.567 136.923 448.555 135.918L450.297 137.92C449.673 138.665 448.884 139.229 447.931 139.61C446.977 139.991 445.903 140.182 444.707 140.182C443.181 140.182 441.838 139.879 440.677 139.272C439.515 138.665 438.614 137.825 437.973 136.75C437.349 135.658 437.037 134.427 437.037 133.058C437.037 131.706 437.34 130.493 437.947 129.418C438.571 128.326 439.429 127.477 440.521 126.87C441.613 126.263 442.843 125.96 444.213 125.96C445.565 125.96 446.769 126.263 447.827 126.87C448.901 127.459 449.733 128.3 450.323 129.392C450.929 130.467 451.233 131.715 451.233 133.136ZM444.213 128.56C443.173 128.56 442.289 128.872 441.561 129.496C440.85 130.103 440.417 130.917 440.261 131.94H448.139C448 130.935 447.575 130.12 446.865 129.496C446.154 128.872 445.27 128.56 444.213 128.56ZM454.355 120.708H457.605V140H454.355V120.708ZM461.87 120.708H465.12V140H461.87V120.708ZM475.626 140.182C474.222 140.182 472.957 139.879 471.83 139.272C470.703 138.665 469.819 137.825 469.178 136.75C468.554 135.658 468.242 134.427 468.242 133.058C468.242 131.689 468.554 130.467 469.178 129.392C469.819 128.317 470.703 127.477 471.83 126.87C472.957 126.263 474.222 125.96 475.626 125.96C477.047 125.96 478.321 126.263 479.448 126.87C480.575 127.477 481.45 128.317 482.074 129.392C482.715 130.467 483.036 131.689 483.036 133.058C483.036 134.427 482.715 135.658 482.074 136.75C481.45 137.825 480.575 138.665 479.448 139.272C478.321 139.879 477.047 140.182 475.626 140.182ZM475.626 137.4C476.822 137.4 477.81 137.001 478.59 136.204C479.37 135.407 479.76 134.358 479.76 133.058C479.76 131.758 479.37 130.709 478.59 129.912C477.81 129.115 476.822 128.716 475.626 128.716C474.43 128.716 473.442 129.115 472.662 129.912C471.899 130.709 471.518 131.758 471.518 133.058C471.518 134.358 471.899 135.407 472.662 136.204C473.442 137.001 474.43 137.4 475.626 137.4ZM486.956 135.866C487.562 135.866 488.065 136.065 488.464 136.464C488.862 136.863 489.062 137.383 489.062 138.024C489.062 138.301 489.018 138.596 488.932 138.908C488.862 139.203 488.706 139.653 488.464 140.26L487.138 143.926H485.032L486.072 139.948C485.69 139.792 485.387 139.549 485.162 139.22C484.954 138.873 484.85 138.475 484.85 138.024C484.85 137.383 485.049 136.863 485.448 136.464C485.846 136.065 486.349 135.866 486.956 135.866ZM503.427 124.66H497.395V121.8H512.839V124.66H506.807V140H503.427V124.66ZM522.942 125.96C524.692 125.96 526.096 126.471 527.154 127.494C528.211 128.517 528.74 130.033 528.74 132.044V140H525.49V132.46C525.49 131.247 525.204 130.337 524.632 129.73C524.06 129.106 523.245 128.794 522.188 128.794C520.992 128.794 520.047 129.158 519.354 129.886C518.66 130.597 518.314 131.628 518.314 132.98V140H515.064V120.708H518.314V127.728C518.851 127.156 519.51 126.723 520.29 126.428C521.087 126.116 521.971 125.96 522.942 125.96ZM546.041 133.136C546.041 133.361 546.024 133.682 545.989 134.098H535.095C535.286 135.121 535.78 135.935 536.577 136.542C537.392 137.131 538.397 137.426 539.593 137.426C541.119 137.426 542.375 136.923 543.363 135.918L545.105 137.92C544.481 138.665 543.693 139.229 542.739 139.61C541.786 139.991 540.711 140.182 539.515 140.182C537.99 140.182 536.647 139.879 535.485 139.272C534.324 138.665 533.423 137.825 532.781 136.75C532.157 135.658 531.845 134.427 531.845 133.058C531.845 131.706 532.149 130.493 532.755 129.418C533.379 128.326 534.237 127.477 535.329 126.87C536.421 126.263 537.652 125.96 539.021 125.96C540.373 125.96 541.578 126.263 542.635 126.87C543.71 127.459 544.542 128.3 545.131 129.392C545.738 130.467 546.041 131.715 546.041 133.136ZM539.021 128.56C537.981 128.56 537.097 128.872 536.369 129.496C535.659 130.103 535.225 130.917 535.069 131.94H542.947C542.809 130.935 542.384 130.12 541.673 129.496C540.963 128.872 540.079 128.56 539.021 128.56ZM552.257 128.144C553.193 126.688 554.84 125.96 557.197 125.96V129.054C556.92 129.002 556.669 128.976 556.443 128.976C555.178 128.976 554.19 129.349 553.479 130.094C552.769 130.822 552.413 131.879 552.413 133.266V140H549.163V126.116H552.257V128.144ZM572.879 133.136C572.879 133.361 572.862 133.682 572.827 134.098H561.933C562.124 135.121 562.618 135.935 563.415 136.542C564.23 137.131 565.235 137.426 566.431 137.426C567.957 137.426 569.213 136.923 570.201 135.918L571.943 137.92C571.319 138.665 570.531 139.229 569.577 139.61C568.624 139.991 567.549 140.182 566.353 140.182C564.828 140.182 563.485 139.879 562.323 139.272C561.162 138.665 560.261 137.825 559.619 136.75C558.995 135.658 558.683 134.427 558.683 133.058C558.683 131.706 558.987 130.493 559.593 129.418C560.217 128.326 561.075 127.477 562.167 126.87C563.259 126.263 564.49 125.96 565.859 125.96C567.211 125.96 568.416 126.263 569.473 126.87C570.548 127.459 571.38 128.3 571.969 129.392C572.576 130.467 572.879 131.715 572.879 133.136ZM565.859 128.56C564.819 128.56 563.935 128.872 563.207 129.496C562.497 130.103 562.063 130.917 561.907 131.94H569.785C569.647 130.935 569.222 130.12 568.511 129.496C567.801 128.872 566.917 128.56 565.859 128.56ZM575.585 121.8H579.433L578.783 133.968H576.209L575.585 121.8ZM577.509 140.182C576.902 140.182 576.4 139.991 576.001 139.61C575.602 139.211 575.403 138.726 575.403 138.154C575.403 137.582 575.602 137.105 576.001 136.724C576.4 136.343 576.902 136.152 577.509 136.152C578.098 136.152 578.584 136.343 578.965 136.724C579.364 137.105 579.563 137.582 579.563 138.154C579.563 138.726 579.364 139.211 578.965 139.61C578.584 139.991 578.098 140.182 577.509 140.182Z" fill="white"/>
<rect x="-16" y="19" width="300" height="11" rx="5.5" fill="white" fill-opacity="0.16"/>
<rect x="298" y="19" width="11" height="11" rx="5.5" fill="white" fill-opacity="0.16"/>
<rect x="317" y="19" width="11" height="11" rx="5.5" fill="white" fill-opacity="0.16"/>
<rect x="336" y="19" width="11" height="11" rx="5.5" fill="white" fill-opacity="0.16"/>
<rect x="631" y="257" width="11" height="11" rx="5.5" fill="white" fill-opacity="0.16"/>
<rect x="650" y="257" width="11" height="11" rx="5.5" fill="white" fill-opacity="0.16"/>
<rect x="669" y="257" width="11" height="11" rx="5.5" fill="white" fill-opacity="0.16"/>
<rect x="694" y="258" width="277" height="9" rx="4.5" fill="white" fill-opacity="0.16"/>
<path d="M422.308 175.232V176H416.368V167.6H422.128V168.368H417.256V171.356H421.6V172.112H417.256V175.232H422.308ZM428.06 176L426.056 173.36L424.04 176H423.08L425.576 172.76L423.2 169.688H424.16L426.056 172.16L427.952 169.688H428.888L426.512 172.76L429.032 176H428.06ZM433.702 169.64C434.294 169.64 434.83 169.776 435.31 170.048C435.79 170.312 436.166 170.688 436.438 171.176C436.71 171.664 436.846 172.22 436.846 172.844C436.846 173.476 436.71 174.036 436.438 174.524C436.166 175.012 435.79 175.392 435.31 175.664C434.838 175.928 434.302 176.06 433.702 176.06C433.19 176.06 432.726 175.956 432.31 175.748C431.902 175.532 431.566 175.22 431.302 174.812V178.328H430.45V169.688H431.266V170.936C431.522 170.52 431.858 170.2 432.274 169.976C432.698 169.752 433.174 169.64 433.702 169.64ZM433.642 175.304C434.082 175.304 434.482 175.204 434.842 175.004C435.202 174.796 435.482 174.504 435.682 174.128C435.89 173.752 435.994 173.324 435.994 172.844C435.994 172.364 435.89 171.94 435.682 171.572C435.482 171.196 435.202 170.904 434.842 170.696C434.482 170.488 434.082 170.384 433.642 170.384C433.194 170.384 432.79 170.488 432.43 170.696C432.078 170.904 431.798 171.196 431.59 171.572C431.39 171.94 431.29 172.364 431.29 172.844C431.29 173.324 431.39 173.752 431.59 174.128C431.798 174.504 432.078 174.796 432.43 175.004C432.79 175.204 433.194 175.304 433.642 175.304ZM438.583 167.096H439.435V176H438.583V167.096ZM444.385 176.06C443.777 176.06 443.229 175.924 442.741 175.652C442.253 175.372 441.869 174.988 441.589 174.5C441.309 174.012 441.169 173.46 441.169 172.844C441.169 172.228 441.309 171.676 441.589 171.188C441.869 170.7 442.253 170.32 442.741 170.048C443.229 169.776 443.777 169.64 444.385 169.64C444.993 169.64 445.541 169.776 446.029 170.048C446.517 170.32 446.897 170.7 447.169 171.188C447.449 171.676 447.589 172.228 447.589 172.844C447.589 173.46 447.449 174.012 447.169 174.5C446.897 174.988 446.517 175.372 446.029 175.652C445.541 175.924 444.993 176.06 444.385 176.06ZM444.385 175.304C444.833 175.304 445.233 175.204 445.585 175.004C445.945 174.796 446.225 174.504 446.425 174.128C446.625 173.752 446.725 173.324 446.725 172.844C446.725 172.364 446.625 171.936 446.425 171.56C446.225 171.184 445.945 170.896 445.585 170.696C445.233 170.488 444.833 170.384 444.385 170.384C443.937 170.384 443.533 170.488 443.173 170.696C442.821 170.896 442.541 171.184 442.333 171.56C442.133 171.936 442.033 172.364 442.033 172.844C442.033 173.324 442.133 173.752 442.333 174.128C442.541 174.504 442.821 174.796 443.173 175.004C443.533 175.204 443.937 175.304 444.385 175.304ZM450.145 170.924C450.345 170.5 450.641 170.18 451.033 169.964C451.433 169.748 451.925 169.64 452.509 169.64V170.468L452.305 170.456C451.641 170.456 451.121 170.66 450.745 171.068C450.369 171.476 450.181 172.048 450.181 172.784V176H449.329V169.688H450.145V170.924ZM459.489 173.108H454.209C454.257 173.764 454.509 174.296 454.965 174.704C455.421 175.104 455.997 175.304 456.693 175.304C457.085 175.304 457.445 175.236 457.773 175.1C458.101 174.956 458.385 174.748 458.625 174.476L459.105 175.028C458.825 175.364 458.473 175.62 458.049 175.796C457.633 175.972 457.173 176.06 456.669 176.06C456.021 176.06 455.445 175.924 454.941 175.652C454.445 175.372 454.057 174.988 453.777 174.5C453.497 174.012 453.357 173.46 453.357 172.844C453.357 172.228 453.489 171.676 453.753 171.188C454.025 170.7 454.393 170.32 454.857 170.048C455.329 169.776 455.857 169.64 456.441 169.64C457.025 169.64 457.549 169.776 458.013 170.048C458.477 170.32 458.841 170.7 459.105 171.188C459.369 171.668 459.501 172.22 459.501 172.844L459.489 173.108ZM456.441 170.372C455.833 170.372 455.321 170.568 454.905 170.96C454.497 171.344 454.265 171.848 454.209 172.472H458.685C458.629 171.848 458.393 171.344 457.977 170.96C457.569 170.568 457.057 170.372 456.441 170.372ZM466.584 169.64C467.408 169.64 468.04 169.848 468.48 170.264C468.92 170.672 469.14 171.28 469.14 172.088V176H468.324V175.016C468.132 175.344 467.848 175.6 467.472 175.784C467.104 175.968 466.664 176.06 466.152 176.06C465.448 176.06 464.888 175.892 464.472 175.556C464.056 175.22 463.848 174.776 463.848 174.224C463.848 173.688 464.04 173.256 464.424 172.928C464.816 172.6 465.436 172.436 466.284 172.436H468.288V172.052C468.288 171.508 468.136 171.096 467.832 170.816C467.528 170.528 467.084 170.384 466.5 170.384C466.1 170.384 465.716 170.452 465.348 170.588C464.98 170.716 464.664 170.896 464.4 171.128L464.016 170.492C464.336 170.22 464.72 170.012 465.168 169.868C465.616 169.716 466.088 169.64 466.584 169.64ZM466.284 175.388C466.764 175.388 467.176 175.28 467.52 175.064C467.864 174.84 468.12 174.52 468.288 174.104V173.072H466.308C465.228 173.072 464.688 173.448 464.688 174.2C464.688 174.568 464.828 174.86 465.108 175.076C465.388 175.284 465.78 175.388 466.284 175.388ZM474.67 169.64C475.462 169.64 476.09 169.872 476.554 170.336C477.026 170.792 477.262 171.46 477.262 172.34V176H476.41V172.424C476.41 171.768 476.246 171.268 475.918 170.924C475.59 170.58 475.122 170.408 474.514 170.408C473.834 170.408 473.294 170.612 472.894 171.02C472.502 171.42 472.306 171.976 472.306 172.688V176H471.454V169.688H472.27V170.852C472.502 170.468 472.822 170.172 473.23 169.964C473.646 169.748 474.126 169.64 474.67 169.64ZM485.358 167.096V176H484.542V174.752C484.286 175.176 483.946 175.5 483.522 175.724C483.106 175.948 482.634 176.06 482.106 176.06C481.514 176.06 480.978 175.924 480.498 175.652C480.018 175.38 479.642 175 479.37 174.512C479.098 174.024 478.962 173.468 478.962 172.844C478.962 172.22 479.098 171.664 479.37 171.176C479.642 170.688 480.018 170.312 480.498 170.048C480.978 169.776 481.514 169.64 482.106 169.64C482.618 169.64 483.078 169.748 483.486 169.964C483.902 170.172 484.242 170.48 484.506 170.888V167.096H485.358ZM482.178 175.304C482.618 175.304 483.014 175.204 483.366 175.004C483.726 174.796 484.006 174.504 484.206 174.128C484.414 173.752 484.518 173.324 484.518 172.844C484.518 172.364 484.414 171.936 484.206 171.56C484.006 171.184 483.726 170.896 483.366 170.696C483.014 170.488 482.618 170.384 482.178 170.384C481.73 170.384 481.326 170.488 480.966 170.696C480.614 170.896 480.334 171.184 480.126 171.56C479.926 171.936 479.826 172.364 479.826 172.844C479.826 173.324 479.926 173.752 480.126 174.128C480.334 174.504 480.614 174.796 480.966 175.004C481.326 175.204 481.73 175.304 482.178 175.304ZM491.052 167.6H494.472C495.36 167.6 496.144 167.78 496.824 168.14C497.504 168.492 498.032 168.988 498.408 169.628C498.784 170.26 498.972 170.984 498.972 171.8C498.972 172.616 498.784 173.344 498.408 173.984C498.032 174.616 497.504 175.112 496.824 175.472C496.144 175.824 495.36 176 494.472 176H491.052V167.6ZM494.424 175.232C495.16 175.232 495.804 175.088 496.356 174.8C496.908 174.504 497.336 174.1 497.64 173.588C497.944 173.068 498.096 172.472 498.096 171.8C498.096 171.128 497.944 170.536 497.64 170.024C497.336 169.504 496.908 169.1 496.356 168.812C495.804 168.516 495.16 168.368 494.424 168.368H491.94V175.232H494.424ZM500.786 169.688H501.638V176H500.786V169.688ZM501.218 168.308C501.042 168.308 500.894 168.248 500.774 168.128C500.654 168.008 500.594 167.864 500.594 167.696C500.594 167.536 500.654 167.396 500.774 167.276C500.894 167.156 501.042 167.096 501.218 167.096C501.394 167.096 501.542 167.156 501.662 167.276C501.782 167.388 501.842 167.524 501.842 167.684C501.842 167.86 501.782 168.008 501.662 168.128C501.542 168.248 501.394 168.308 501.218 168.308ZM505.7 176.06C505.188 176.06 504.696 175.988 504.224 175.844C503.76 175.692 503.396 175.504 503.132 175.28L503.516 174.608C503.78 174.816 504.112 174.988 504.512 175.124C504.912 175.252 505.328 175.316 505.76 175.316C506.336 175.316 506.76 175.228 507.032 175.052C507.312 174.868 507.452 174.612 507.452 174.284C507.452 174.052 507.376 173.872 507.224 173.744C507.072 173.608 506.88 173.508 506.648 173.444C506.416 173.372 506.108 173.304 505.724 173.24C505.212 173.144 504.8 173.048 504.488 172.952C504.176 172.848 503.908 172.676 503.684 172.436C503.468 172.196 503.36 171.864 503.36 171.44C503.36 170.912 503.58 170.48 504.02 170.144C504.46 169.808 505.072 169.64 505.856 169.64C506.264 169.64 506.672 169.696 507.08 169.808C507.488 169.912 507.824 170.052 508.088 170.228L507.716 170.912C507.196 170.552 506.576 170.372 505.856 170.372C505.312 170.372 504.9 170.468 504.62 170.66C504.348 170.852 504.212 171.104 504.212 171.416C504.212 171.656 504.288 171.848 504.44 171.992C504.6 172.136 504.796 172.244 505.028 172.316C505.26 172.38 505.58 172.448 505.988 172.52C506.492 172.616 506.896 172.712 507.2 172.808C507.504 172.904 507.764 173.068 507.98 173.3C508.196 173.532 508.304 173.852 508.304 174.26C508.304 174.812 508.072 175.252 507.608 175.58C507.152 175.9 506.516 176.06 505.7 176.06ZM512.495 176.06C511.871 176.06 511.311 175.924 510.815 175.652C510.327 175.38 509.943 175 509.663 174.512C509.383 174.016 509.243 173.46 509.243 172.844C509.243 172.228 509.383 171.676 509.663 171.188C509.943 170.7 510.327 170.32 510.815 170.048C511.311 169.776 511.871 169.64 512.495 169.64C513.039 169.64 513.523 169.748 513.947 169.964C514.379 170.172 514.719 170.48 514.967 170.888L514.331 171.32C514.123 171.008 513.859 170.776 513.539 170.624C513.219 170.464 512.871 170.384 512.495 170.384C512.039 170.384 511.627 170.488 511.259 170.696C510.899 170.896 510.615 171.184 510.407 171.56C510.207 171.936 510.107 172.364 510.107 172.844C510.107 173.332 510.207 173.764 510.407 174.14C510.615 174.508 510.899 174.796 511.259 175.004C511.627 175.204 512.039 175.304 512.495 175.304C512.871 175.304 513.219 175.228 513.539 175.076C513.859 174.924 514.123 174.692 514.331 174.38L514.967 174.812C514.719 175.22 514.379 175.532 513.947 175.748C513.515 175.956 513.031 176.06 512.495 176.06ZM519.116 176.06C518.508 176.06 517.96 175.924 517.472 175.652C516.984 175.372 516.6 174.988 516.32 174.5C516.04 174.012 515.9 173.46 515.9 172.844C515.9 172.228 516.04 171.676 516.32 171.188C516.6 170.7 516.984 170.32 517.472 170.048C517.96 169.776 518.508 169.64 519.116 169.64C519.724 169.64 520.272 169.776 520.76 170.048C521.248 170.32 521.628 170.7 521.9 171.188C522.18 171.676 522.32 172.228 522.32 172.844C522.32 173.46 522.18 174.012 521.9 174.5C521.628 174.988 521.248 175.372 520.76 175.652C520.272 175.924 519.724 176.06 519.116 176.06ZM519.116 175.304C519.564 175.304 519.964 175.204 520.316 175.004C520.676 174.796 520.956 174.504 521.156 174.128C521.356 173.752 521.456 173.324 521.456 172.844C521.456 172.364 521.356 171.936 521.156 171.56C520.956 171.184 520.676 170.896 520.316 170.696C519.964 170.488 519.564 170.384 519.116 170.384C518.668 170.384 518.264 170.488 517.904 170.696C517.552 170.896 517.272 171.184 517.064 171.56C516.864 171.936 516.764 172.364 516.764 172.844C516.764 173.324 516.864 173.752 517.064 174.128C517.272 174.504 517.552 174.796 517.904 175.004C518.264 175.204 518.668 175.304 519.116 175.304ZM529.187 169.688L526.379 176H525.503L522.707 169.688H523.595L525.959 175.064L528.347 169.688H529.187ZM535.707 173.108H530.427C530.475 173.764 530.727 174.296 531.183 174.704C531.639 175.104 532.215 175.304 532.911 175.304C533.303 175.304 533.663 175.236 533.991 175.1C534.319 174.956 534.603 174.748 534.843 174.476L535.323 175.028C535.043 175.364 534.691 175.62 534.267 175.796C533.851 175.972 533.391 176.06 532.887 176.06C532.239 176.06 531.663 175.924 531.159 175.652C530.663 175.372 530.275 174.988 529.995 174.5C529.715 174.012 529.575 173.46 529.575 172.844C529.575 172.228 529.707 171.676 529.971 171.188C530.243 170.7 530.611 170.32 531.075 170.048C531.547 169.776 532.075 169.64 532.659 169.64C533.243 169.64 533.767 169.776 534.231 170.048C534.695 170.32 535.059 170.7 535.323 171.188C535.587 171.668 535.719 172.22 535.719 172.844L535.707 173.108ZM532.659 170.372C532.051 170.372 531.539 170.568 531.123 170.96C530.715 171.344 530.483 171.848 530.427 172.472H534.903C534.847 171.848 534.611 171.344 534.195 170.96C533.787 170.568 533.275 170.372 532.659 170.372ZM538.27 170.924C538.47 170.5 538.766 170.18 539.158 169.964C539.558 169.748 540.05 169.64 540.634 169.64V170.468L540.43 170.456C539.766 170.456 539.246 170.66 538.87 171.068C538.494 171.476 538.306 172.048 538.306 172.784V176H537.454V169.688H538.27V170.924ZM553.283 169.64C554.075 169.64 554.695 169.868 555.143 170.324C555.599 170.78 555.827 171.452 555.827 172.34V176H554.975V172.424C554.975 171.768 554.815 171.268 554.495 170.924C554.183 170.58 553.739 170.408 553.163 170.408C552.507 170.408 551.991 170.612 551.615 171.02C551.239 171.42 551.051 171.976 551.051 172.688V176H550.199V172.424C550.199 171.768 550.039 171.268 549.719 170.924C549.407 170.58 548.959 170.408 548.375 170.408C547.727 170.408 547.211 170.612 546.827 171.02C546.451 171.42 546.263 171.976 546.263 172.688V176H545.411V169.688H546.227V170.84C546.451 170.456 546.763 170.16 547.163 169.952C547.563 169.744 548.023 169.64 548.543 169.64C549.071 169.64 549.527 169.752 549.911 169.976C550.303 170.2 550.595 170.532 550.787 170.972C551.019 170.556 551.351 170.232 551.783 170C552.223 169.76 552.723 169.64 553.283 169.64ZM563.324 169.688L560.168 176.756C559.912 177.348 559.616 177.768 559.28 178.016C558.944 178.264 558.54 178.388 558.068 178.388C557.764 178.388 557.48 178.34 557.216 178.244C556.952 178.148 556.724 178.004 556.532 177.812L556.928 177.176C557.248 177.496 557.632 177.656 558.08 177.656C558.368 177.656 558.612 177.576 558.812 177.416C559.02 177.256 559.212 176.984 559.388 176.6L559.664 175.988L556.844 169.688H557.732L560.108 175.052L562.484 169.688H563.324ZM570.917 169.64C571.509 169.64 572.045 169.776 572.525 170.048C573.005 170.312 573.381 170.688 573.653 171.176C573.925 171.664 574.061 172.22 574.061 172.844C574.061 173.476 573.925 174.036 573.653 174.524C573.381 175.012 573.005 175.392 572.525 175.664C572.053 175.928 571.517 176.06 570.917 176.06C570.405 176.06 569.941 175.956 569.525 175.748C569.117 175.532 568.781 175.22 568.517 174.812V178.328H567.665V169.688H568.481V170.936C568.737 170.52 569.073 170.2 569.489 169.976C569.913 169.752 570.389 169.64 570.917 169.64ZM570.857 175.304C571.297 175.304 571.697 175.204 572.057 175.004C572.417 174.796 572.697 174.504 572.897 174.128C573.105 173.752 573.209 173.324 573.209 172.844C573.209 172.364 573.105 171.94 572.897 171.572C572.697 171.196 572.417 170.904 572.057 170.696C571.697 170.488 571.297 170.384 570.857 170.384C570.409 170.384 570.005 170.488 569.645 170.696C569.293 170.904 569.013 171.196 568.805 171.572C568.605 171.94 568.505 172.364 568.505 172.844C568.505 173.324 568.605 173.752 568.805 174.128C569.013 174.504 569.293 174.796 569.645 175.004C570.005 175.204 570.409 175.304 570.857 175.304ZM576.613 170.924C576.813 170.5 577.109 170.18 577.501 169.964C577.901 169.748 578.393 169.64 578.977 169.64V170.468L578.773 170.456C578.109 170.456 577.589 170.66 577.213 171.068C576.837 171.476 576.649 172.048 576.649 172.784V176H575.797V169.688H576.613V170.924ZM583.041 176.06C582.433 176.06 581.885 175.924 581.397 175.652C580.909 175.372 580.525 174.988 580.245 174.5C579.965 174.012 579.825 173.46 579.825 172.844C579.825 172.228 579.965 171.676 580.245 171.188C580.525 170.7 580.909 170.32 581.397 170.048C581.885 169.776 582.433 169.64 583.041 169.64C583.649 169.64 584.197 169.776 584.685 170.048C585.173 170.32 585.553 170.7 585.825 171.188C586.105 171.676 586.245 172.228 586.245 172.844C586.245 173.46 586.105 174.012 585.825 174.5C585.553 174.988 585.173 175.372 584.685 175.652C584.197 175.924 583.649 176.06 583.041 176.06ZM583.041 175.304C583.489 175.304 583.889 175.204 584.241 175.004C584.601 174.796 584.881 174.504 585.081 174.128C585.281 173.752 585.381 173.324 585.381 172.844C585.381 172.364 585.281 171.936 585.081 171.56C584.881 171.184 584.601 170.896 584.241 170.696C583.889 170.488 583.489 170.384 583.041 170.384C582.593 170.384 582.189 170.488 581.829 170.696C581.477 170.896 581.197 171.184 580.989 171.56C580.789 171.936 580.689 172.364 580.689 172.844C580.689 173.324 580.789 173.752 580.989 174.128C581.197 174.504 581.477 174.796 581.829 175.004C582.189 175.204 582.593 175.304 583.041 175.304ZM587.049 178.388C586.785 178.388 586.537 178.352 586.305 178.28C586.065 178.216 585.869 178.116 585.717 177.98L586.017 177.332C586.265 177.548 586.593 177.656 587.001 177.656C587.337 177.656 587.593 177.556 587.769 177.356C587.953 177.156 588.045 176.86 588.045 176.468V169.688H588.897V176.468C588.897 177.06 588.737 177.528 588.417 177.872C588.097 178.216 587.641 178.388 587.049 178.388ZM588.477 168.296C588.301 168.296 588.153 168.236 588.033 168.116C587.913 167.996 587.853 167.852 587.853 167.684C587.853 167.524 587.913 167.384 588.033 167.264C588.153 167.144 588.301 167.084 588.477 167.084C588.653 167.084 588.801 167.144 588.921 167.264C589.041 167.376 589.101 167.512 589.101 167.672C589.101 167.848 589.041 167.996 588.921 168.116C588.801 168.236 588.653 168.296 588.477 168.296ZM596.774 173.108H591.494C591.542 173.764 591.794 174.296 592.25 174.704C592.706 175.104 593.282 175.304 593.978 175.304C594.37 175.304 594.73 175.236 595.058 175.1C595.386 174.956 595.67 174.748 595.91 174.476L596.39 175.028C596.11 175.364 595.758 175.62 595.334 175.796C594.918 175.972 594.458 176.06 593.954 176.06C593.306 176.06 592.73 175.924 592.226 175.652C591.73 175.372 591.342 174.988 591.062 174.5C590.782 174.012 590.642 173.46 590.642 172.844C590.642 172.228 590.774 171.676 591.038 171.188C591.31 170.7 591.678 170.32 592.142 170.048C592.614 169.776 593.142 169.64 593.726 169.64C594.31 169.64 594.834 169.776 595.298 170.048C595.762 170.32 596.126 170.7 596.39 171.188C596.654 171.668 596.786 172.22 596.786 172.844L596.774 173.108ZM593.726 170.372C593.118 170.372 592.606 170.568 592.19 170.96C591.782 171.344 591.55 171.848 591.494 172.472H595.97C595.914 171.848 595.678 171.344 595.262 170.96C594.854 170.568 594.342 170.372 593.726 170.372ZM601.136 176.06C600.512 176.06 599.952 175.924 599.456 175.652C598.968 175.38 598.584 175 598.304 174.512C598.024 174.016 597.884 173.46 597.884 172.844C597.884 172.228 598.024 171.676 598.304 171.188C598.584 170.7 598.968 170.32 599.456 170.048C599.952 169.776 600.512 169.64 601.136 169.64C601.68 169.64 602.164 169.748 602.588 169.964C603.02 170.172 603.36 170.48 603.608 170.888L602.972 171.32C602.764 171.008 602.5 170.776 602.18 170.624C601.86 170.464 601.512 170.384 601.136 170.384C600.68 170.384 600.268 170.488 599.9 170.696C599.54 170.896 599.256 171.184 599.048 171.56C598.848 171.936 598.748 172.364 598.748 172.844C598.748 173.332 598.848 173.764 599.048 174.14C599.256 174.508 599.54 174.796 599.9 175.004C600.268 175.204 600.68 175.304 601.136 175.304C601.512 175.304 601.86 175.228 602.18 175.076C602.5 174.924 602.764 174.692 602.972 174.38L603.608 174.812C603.36 175.22 603.02 175.532 602.588 175.748C602.156 175.956 601.672 176.06 601.136 176.06ZM608.676 175.616C608.516 175.76 608.316 175.872 608.076 175.952C607.844 176.024 607.6 176.06 607.344 176.06C606.752 176.06 606.296 175.9 605.976 175.58C605.656 175.26 605.496 174.808 605.496 174.224V170.408H604.368V169.688H605.496V168.308H606.348V169.688H608.268V170.408H606.348V174.176C606.348 174.552 606.44 174.84 606.624 175.04C606.816 175.232 607.088 175.328 607.44 175.328C607.616 175.328 607.784 175.3 607.944 175.244C608.112 175.188 608.256 175.108 608.376 175.004L608.676 175.616ZM611.919 176.06C611.407 176.06 610.915 175.988 610.443 175.844C609.979 175.692 609.615 175.504 609.351 175.28L609.735 174.608C609.999 174.816 610.331 174.988 610.731 175.124C611.131 175.252 611.547 175.316 611.979 175.316C612.555 175.316 612.979 175.228 613.251 175.052C613.531 174.868 613.671 174.612 613.671 174.284C613.671 174.052 613.595 173.872 613.443 173.744C613.291 173.608 613.099 173.508 612.867 173.444C612.635 173.372 612.327 173.304 611.943 173.24C611.431 173.144 611.019 173.048 610.707 172.952C610.395 172.848 610.127 172.676 609.903 172.436C609.687 172.196 609.579 171.864 609.579 171.44C609.579 170.912 609.799 170.48 610.239 170.144C610.679 169.808 611.291 169.64 612.075 169.64C612.483 169.64 612.891 169.696 613.299 169.808C613.707 169.912 614.043 170.052 614.307 170.228L613.935 170.912C613.415 170.552 612.795 170.372 612.075 170.372C611.531 170.372 611.119 170.468 610.839 170.66C610.567 170.852 610.431 171.104 610.431 171.416C610.431 171.656 610.507 171.848 610.659 171.992C610.819 172.136 611.015 172.244 611.247 172.316C611.479 172.38 611.799 172.448 612.207 172.52C612.711 172.616 613.115 172.712 613.419 172.808C613.723 172.904 613.983 173.068 614.199 173.3C614.415 173.532 614.523 173.852 614.523 174.26C614.523 174.812 614.291 175.252 613.827 175.58C613.371 175.9 612.735 176.06 611.919 176.06Z" fill="white"/>
</g>
<defs>
<clipPath id="clip0">
<rect width="905" height="286" fill="white"/>
</clipPath>
</defs>
</svg>
