<svg width="905" height="286" viewBox="0 0 905 286" fill="none" xmlns="http://www.w3.org/2000/svg">
<g clip-path="url(#clip0)">
<rect width="905" height="286" fill="#000931"/>
<mask id="mask0" mask-type="alpha" maskUnits="userSpaceOnUse" x="259" y="79" width="122" height="148">
<path d="M334.157 167.012V178.111H336.571C360.572 178.111 380.029 197.567 380.029 221.568V227H259.314V221.568C259.314 197.567 278.771 178.111 302.771 178.111H305.186V167.012C294.782 162.069 287.303 151.968 286.056 140.014C282.54 139.517 279.836 136.496 279.836 132.843V124.393C279.836 120.804 282.446 117.825 285.871 117.25V113.529C285.871 94.8613 301.004 79.7286 319.671 79.7286C338.339 79.7286 353.471 94.8613 353.471 113.529V117.25C356.897 117.825 359.507 120.804 359.507 124.393V132.843C359.507 136.496 356.803 139.517 353.287 140.014C352.04 151.968 344.561 162.069 334.157 167.012Z" fill="white"/>
</mask>
<g mask="url(#mask0)">
<path d="M334.157 167.012V178.111H336.571C360.572 178.111 380.029 197.567 380.029 221.568V227H259.314V221.568C259.314 197.567 278.771 178.111 302.771 178.111H305.186V167.012C294.782 162.069 287.303 151.968 286.056 140.014C282.54 139.517 279.836 136.496 279.836 132.843V124.393C279.836 120.804 282.446 117.825 285.871 117.25V113.529C285.871 94.8613 301.004 79.7286 319.671 79.7286C338.339 79.7286 353.471 94.8613 353.471 113.529V117.25C356.897 117.825 359.507 120.804 359.507 124.393V132.843C359.507 136.496 356.803 139.517 353.287 140.014C352.04 151.968 344.561 162.069 334.157 167.012Z" fill="#D0C6AC"/>
<path d="M418.657 79.7286H259.314V248.729H418.657V79.7286Z" fill="#D08B5B"/>
<path fill-rule="evenodd" clip-rule="evenodd" d="M353.471 127.411V141.293C353.471 159.96 338.339 175.093 319.671 175.093C301.004 175.093 285.871 159.96 285.871 141.293V127.411V136.464C285.871 155.132 301.004 170.264 319.671 170.264C338.339 170.264 353.471 155.132 353.471 136.464V127.411Z" fill="black" fill-opacity="0.1"/>
</g>
<mask id="mask1" mask-type="alpha" maskUnits="userSpaceOnUse" x="259" y="168" width="122" height="59">
<path fill-rule="evenodd" clip-rule="evenodd" d="M305.186 168.496C294.37 169.707 286.04 173.012 285.874 181.518C270.267 188.111 259.314 203.56 259.314 221.568V227H380.029V221.568C380.029 203.56 369.076 188.111 353.469 181.518C353.302 173.012 344.972 169.707 334.157 168.496V179.921C334.157 187.922 327.672 194.407 319.671 194.407C311.671 194.407 305.186 187.922 305.186 179.921V168.496Z" fill="white"/>
</mask>
<g mask="url(#mask1)">
<path fill-rule="evenodd" clip-rule="evenodd" d="M305.186 168.496C294.37 169.707 286.04 173.012 285.874 181.518C270.267 188.111 259.314 203.56 259.314 221.568V227H380.029V221.568C380.029 203.56 369.076 188.111 353.469 181.518C353.302 173.012 344.972 169.707 334.157 168.496V179.921C334.157 187.922 327.672 194.407 319.671 194.407C311.671 194.407 305.186 187.922 305.186 179.921V168.496Z" fill="#B7C1DB"/>
<path d="M399.343 160.607H240V227H399.343V160.607Z" fill="#25557C"/>
<path fill-rule="evenodd" clip-rule="evenodd" d="M301.564 197.871V227H297.339V195.705C298.669 196.496 300.084 197.22 301.564 197.871ZM342.003 195.705V220.059C342.003 221.226 341.058 222.171 339.891 222.171C338.724 222.171 337.778 221.226 337.778 220.059V197.871C339.259 197.22 340.673 196.496 342.003 195.705Z" fill="#F4F4F4"/>
<path fill-rule="evenodd" clip-rule="evenodd" d="M294.901 168.287C285.817 170.005 279.534 173.429 279.534 180.107C279.534 192.005 299.475 201.65 319.671 201.65C339.868 201.65 359.809 192.005 359.809 180.107C359.809 173.429 353.526 170.005 344.442 168.287C349.925 170.309 353.471 173.708 353.471 179.364C353.471 191.672 336.679 201.65 319.671 201.65C302.664 201.65 285.871 191.672 285.871 179.364C285.871 173.708 289.417 170.309 294.901 168.287Z" fill="black" fill-opacity="0.16"/>
</g>
<mask id="mask2" mask-type="alpha" maskUnits="userSpaceOnUse" x="308" y="146" width="24" height="13">
<path fill-rule="evenodd" clip-rule="evenodd" d="M308.275 148.009C308.913 153.738 313.772 158.193 319.671 158.193C325.589 158.193 330.46 153.711 331.074 147.956C331.123 147.493 330.606 146.725 329.958 146.725C320.968 146.725 314.081 146.725 309.463 146.725C308.811 146.725 308.211 147.436 308.275 148.009Z" fill="white"/>
</mask>
<g mask="url(#mask2)">
<path fill-rule="evenodd" clip-rule="evenodd" d="M308.275 148.009C308.913 153.738 313.772 158.193 319.671 158.193C325.589 158.193 330.46 153.711 331.074 147.956C331.123 147.493 330.606 146.725 329.958 146.725C320.968 146.725 314.081 146.725 309.463 146.725C308.811 146.725 308.211 147.436 308.275 148.009Z" fill="black" fill-opacity="0.7"/>
<path d="M326.311 140.086H313.636C311.969 140.086 310.618 141.437 310.618 143.104V146.725C310.618 148.392 311.969 149.743 313.636 149.743H326.311C327.977 149.743 329.329 148.392 329.329 146.725V143.104C329.329 141.437 327.977 140.086 326.311 140.086Z" fill="white"/>
<path d="M316.654 166.643C320.32 166.643 323.293 163.67 323.293 160.004C323.293 156.337 320.32 153.364 316.654 153.364C312.987 153.364 310.014 156.337 310.014 160.004C310.014 163.67 312.987 166.643 316.654 166.643Z" fill="#FF4F6D"/>
<path d="M322.689 166.643C326.356 166.643 329.329 163.67 329.329 160.004C329.329 156.337 326.356 153.364 322.689 153.364C319.022 153.364 316.05 156.337 316.05 160.004C316.05 163.67 319.022 166.643 322.689 166.643Z" fill="#FF4F6D"/>
</g>
<path fill-rule="evenodd" clip-rule="evenodd" d="M312.429 136.464C312.429 139.131 315.671 141.293 319.671 141.293C323.672 141.293 326.914 139.131 326.914 136.464" fill="black" fill-opacity="0.16"/>
<path d="M303.979 129.221C305.979 129.221 307.6 127.6 307.6 125.6C307.6 123.6 305.979 121.979 303.979 121.979C301.979 121.979 300.357 123.6 300.357 125.6C300.357 127.6 301.979 129.221 303.979 129.221Z" fill="black" fill-opacity="0.6"/>
<path d="M335.364 129.221C337.364 129.221 338.986 127.6 338.986 125.6C338.986 123.6 337.364 121.979 335.364 121.979C333.364 121.979 331.743 123.6 331.743 125.6C331.743 127.6 333.364 129.221 335.364 129.221Z" fill="black" fill-opacity="0.6"/>
<path d="M295.305 117.849C297.668 114.524 304.146 112.66 309.726 114.03C310.374 114.189 311.028 113.793 311.187 113.146C311.346 112.498 310.95 111.845 310.302 111.686C303.822 110.094 296.321 112.253 293.337 116.451C292.951 116.994 293.079 117.748 293.622 118.134C294.166 118.52 294.919 118.393 295.305 117.849Z" fill="black" fill-opacity="0.6"/>
<path d="M344.038 117.849C341.675 114.524 335.197 112.66 329.617 114.03C328.969 114.189 328.315 113.793 328.156 113.146C327.997 112.498 328.393 111.845 329.041 111.686C335.521 110.094 343.022 112.253 346.006 116.451C346.392 116.994 346.264 117.748 345.721 118.134C345.177 118.52 344.424 118.393 344.038 117.849Z" fill="black" fill-opacity="0.6"/>
<mask id="mask3" mask-type="alpha" maskUnits="userSpaceOnUse" x="240" y="58" width="160" height="169">
<path d="M399.343 58H240V227H399.343V58Z" fill="white"/>
</mask>
<g mask="url(#mask3)">
<mask id="mask4" mask-type="alpha" maskUnits="userSpaceOnUse" x="282" y="64" width="76" height="55">
<path fill-rule="evenodd" clip-rule="evenodd" d="M350.26 81.5084C353.523 78.5206 354.309 72.4625 352.456 68.5319C350.182 63.7061 345.565 63.1015 341.142 65.2239C336.972 67.2247 333.261 67.8912 328.695 66.9218C324.314 65.9917 320.158 64.3512 315.63 64.0817C308.19 63.6391 300.963 66.3984 295.893 71.9602C294.925 73.0212 294.146 74.2344 293.409 75.464C292.819 76.4478 292.155 77.5034 291.904 78.6374C291.785 79.1767 292.007 80.5071 291.738 80.9489C291.448 81.426 290.353 81.8636 289.886 82.2176C288.94 82.9351 288.121 83.7447 287.363 84.6604C285.754 86.6049 284.868 88.6359 284.123 91.0412C281.647 99.0355 281.437 108.544 284.638 116.394C285.065 117.44 286.388 119.624 287.165 117.382C287.319 116.939 286.963 115.454 286.964 115.007C286.967 113.366 287.873 102.496 291.821 96.4071C293.106 94.4251 299.047 87.003 300.261 86.9434C300.904 87.9652 307.431 94.4934 324.369 93.7283C332.012 93.3832 337.889 89.9495 339.3 88.4611C339.921 91.8005 347.142 96.8 348.242 98.8571C351.421 104.8 352.126 117.147 353.339 117.124C354.553 117.101 355.424 113.963 355.673 113.364C357.527 108.912 357.843 103.325 357.645 98.541C357.387 92.3833 354.845 85.7292 350.26 81.5084Z" fill="white"/>
</mask>
<g mask="url(#mask4)">
<path fill-rule="evenodd" clip-rule="evenodd" d="M350.26 81.5084C353.523 78.5206 354.309 72.4625 352.456 68.5319C350.182 63.7061 345.565 63.1015 341.142 65.2239C336.972 67.2247 333.261 67.8912 328.695 66.9218C324.314 65.9917 320.158 64.3512 315.63 64.0817C308.19 63.6391 300.963 66.3984 295.893 71.9602C294.925 73.0212 294.146 74.2344 293.409 75.464C292.819 76.4478 292.155 77.5034 291.904 78.6374C291.785 79.1767 292.007 80.5071 291.738 80.9489C291.448 81.426 290.353 81.8636 289.886 82.2176C288.94 82.9351 288.121 83.7447 287.363 84.6604C285.754 86.6049 284.868 88.6359 284.123 91.0412C281.647 99.0355 281.437 108.544 284.638 116.394C285.065 117.44 286.388 119.624 287.165 117.382C287.319 116.939 286.963 115.454 286.964 115.007C286.967 113.366 287.873 102.496 291.821 96.4071C293.106 94.4251 299.047 87.003 300.261 86.9434C300.904 87.9652 307.431 94.4934 324.369 93.7283C332.012 93.3832 337.889 89.9495 339.3 88.4611C339.921 91.8005 347.142 96.8 348.242 98.8571C351.421 104.8 352.126 117.147 353.339 117.124C354.553 117.101 355.424 113.963 355.673 113.364C357.527 108.912 357.843 103.325 357.645 98.541C357.387 92.3833 354.845 85.7292 350.26 81.5084Z" fill="#28354B"/>
<path d="M398.739 58H239.396V227H398.739V58Z" fill="#2C1B18"/>
</g>
</g>
<path d="M433.616 121.8V140H430.236V132.2H420.824V140H417.444V121.8H420.824V129.314H430.236V121.8H433.616ZM451.233 133.136C451.233 133.361 451.215 133.682 451.181 134.098H440.287C440.477 135.121 440.971 135.935 441.769 136.542C442.583 137.131 443.589 137.426 444.785 137.426C446.31 137.426 447.567 136.923 448.555 135.918L450.297 137.92C449.673 138.665 448.884 139.229 447.931 139.61C446.977 139.991 445.903 140.182 444.707 140.182C443.181 140.182 441.838 139.879 440.677 139.272C439.515 138.665 438.614 137.825 437.973 136.75C437.349 135.658 437.037 134.427 437.037 133.058C437.037 131.706 437.34 130.493 437.947 129.418C438.571 128.326 439.429 127.477 440.521 126.87C441.613 126.263 442.843 125.96 444.213 125.96C445.565 125.96 446.769 126.263 447.827 126.87C448.901 127.459 449.733 128.3 450.323 129.392C450.929 130.467 451.233 131.715 451.233 133.136ZM444.213 128.56C443.173 128.56 442.289 128.872 441.561 129.496C440.85 130.103 440.417 130.917 440.261 131.94H448.139C448 130.935 447.575 130.12 446.865 129.496C446.154 128.872 445.27 128.56 444.213 128.56ZM454.355 120.708H457.605V140H454.355V120.708ZM461.87 120.708H465.12V140H461.87V120.708ZM475.626 140.182C474.222 140.182 472.957 139.879 471.83 139.272C470.703 138.665 469.819 137.825 469.178 136.75C468.554 135.658 468.242 134.427 468.242 133.058C468.242 131.689 468.554 130.467 469.178 129.392C469.819 128.317 470.703 127.477 471.83 126.87C472.957 126.263 474.222 125.96 475.626 125.96C477.047 125.96 478.321 126.263 479.448 126.87C480.575 127.477 481.45 128.317 482.074 129.392C482.715 130.467 483.036 131.689 483.036 133.058C483.036 134.427 482.715 135.658 482.074 136.75C481.45 137.825 480.575 138.665 479.448 139.272C478.321 139.879 477.047 140.182 475.626 140.182ZM475.626 137.4C476.822 137.4 477.81 137.001 478.59 136.204C479.37 135.407 479.76 134.358 479.76 133.058C479.76 131.758 479.37 130.709 478.59 129.912C477.81 129.115 476.822 128.716 475.626 128.716C474.43 128.716 473.442 129.115 472.662 129.912C471.899 130.709 471.518 131.758 471.518 133.058C471.518 134.358 471.899 135.407 472.662 136.204C473.442 137.001 474.43 137.4 475.626 137.4ZM486.956 135.866C487.562 135.866 488.065 136.065 488.464 136.464C488.862 136.863 489.062 137.383 489.062 138.024C489.062 138.301 489.018 138.596 488.932 138.908C488.862 139.203 488.706 139.653 488.464 140.26L487.138 143.926H485.032L486.072 139.948C485.69 139.792 485.387 139.549 485.162 139.22C484.954 138.873 484.85 138.475 484.85 138.024C484.85 137.383 485.049 136.863 485.448 136.464C485.846 136.065 486.349 135.866 486.956 135.866ZM503.427 124.66H497.395V121.8H512.839V124.66H506.807V140H503.427V124.66ZM522.942 125.96C524.692 125.96 526.096 126.471 527.154 127.494C528.211 128.517 528.74 130.033 528.74 132.044V140H525.49V132.46C525.49 131.247 525.204 130.337 524.632 129.73C524.06 129.106 523.245 128.794 522.188 128.794C520.992 128.794 520.047 129.158 519.354 129.886C518.66 130.597 518.314 131.628 518.314 132.98V140H515.064V120.708H518.314V127.728C518.851 127.156 519.51 126.723 520.29 126.428C521.087 126.116 521.971 125.96 522.942 125.96ZM546.041 133.136C546.041 133.361 546.024 133.682 545.989 134.098H535.095C535.286 135.121 535.78 135.935 536.577 136.542C537.392 137.131 538.397 137.426 539.593 137.426C541.119 137.426 542.375 136.923 543.363 135.918L545.105 137.92C544.481 138.665 543.693 139.229 542.739 139.61C541.786 139.991 540.711 140.182 539.515 140.182C537.99 140.182 536.647 139.879 535.485 139.272C534.324 138.665 533.423 137.825 532.781 136.75C532.157 135.658 531.845 134.427 531.845 133.058C531.845 131.706 532.149 130.493 532.755 129.418C533.379 128.326 534.237 127.477 535.329 126.87C536.421 126.263 537.652 125.96 539.021 125.96C540.373 125.96 541.578 126.263 542.635 126.87C543.71 127.459 544.542 128.3 545.131 129.392C545.738 130.467 546.041 131.715 546.041 133.136ZM539.021 128.56C537.981 128.56 537.097 128.872 536.369 129.496C535.659 130.103 535.225 130.917 535.069 131.94H542.947C542.809 130.935 542.384 130.12 541.673 129.496C540.963 128.872 540.079 128.56 539.021 128.56ZM552.257 128.144C553.193 126.688 554.84 125.96 557.197 125.96V129.054C556.92 129.002 556.669 128.976 556.443 128.976C555.178 128.976 554.19 129.349 553.479 130.094C552.769 130.822 552.413 131.879 552.413 133.266V140H549.163V126.116H552.257V128.144ZM572.879 133.136C572.879 133.361 572.862 133.682 572.827 134.098H561.933C562.124 135.121 562.618 135.935 563.415 136.542C564.23 137.131 565.235 137.426 566.431 137.426C567.957 137.426 569.213 136.923 570.201 135.918L571.943 137.92C571.319 138.665 570.531 139.229 569.577 139.61C568.624 139.991 567.549 140.182 566.353 140.182C564.828 140.182 563.485 139.879 562.323 139.272C561.162 138.665 560.261 137.825 559.619 136.75C558.995 135.658 558.683 134.427 558.683 133.058C558.683 131.706 558.987 130.493 559.593 129.418C560.217 128.326 561.075 127.477 562.167 126.87C563.259 126.263 564.49 125.96 565.859 125.96C567.211 125.96 568.416 126.263 569.473 126.87C570.548 127.459 571.38 128.3 571.969 129.392C572.576 130.467 572.879 131.715 572.879 133.136ZM565.859 128.56C564.819 128.56 563.935 128.872 563.207 129.496C562.497 130.103 562.063 130.917 561.907 131.94H569.785C569.647 130.935 569.222 130.12 568.511 129.496C567.801 128.872 566.917 128.56 565.859 128.56ZM575.585 121.8H579.433L578.783 133.968H576.209L575.585 121.8ZM577.509 140.182C576.902 140.182 576.4 139.991 576.001 139.61C575.602 139.211 575.403 138.726 575.403 138.154C575.403 137.582 575.602 137.105 576.001 136.724C576.4 136.343 576.902 136.152 577.509 136.152C578.098 136.152 578.584 136.343 578.965 136.724C579.364 137.105 579.563 137.582 579.563 138.154C579.563 138.726 579.364 139.211 578.965 139.61C578.584 139.991 578.098 140.182 577.509 140.182Z" fill="white"/>
<rect x="-16" y="19" width="300" height="11" rx="5.5" fill="white" fill-opacity="0.16"/>
<rect x="298" y="19" width="11" height="11" rx="5.5" fill="white" fill-opacity="0.16"/>
<rect x="317" y="19" width="11" height="11" rx="5.5" fill="white" fill-opacity="0.16"/>
<rect x="336" y="19" width="11" height="11" rx="5.5" fill="white" fill-opacity="0.16"/>
<rect x="631" y="257" width="11" height="11" rx="5.5" fill="white" fill-opacity="0.16"/>
<rect x="650" y="257" width="11" height="11" rx="5.5" fill="white" fill-opacity="0.16"/>
<rect x="669" y="257" width="11" height="11" rx="5.5" fill="white" fill-opacity="0.16"/>
<rect x="694" y="258" width="277" height="9" rx="4.5" fill="white" fill-opacity="0.16"/>
<path d="M418.972 172.052L417.256 173.792V176H416.368V167.6H417.256V172.676L422.188 167.6H423.208L419.572 171.404L423.46 176H422.404L418.972 172.052ZM427.818 169.64C428.61 169.64 429.238 169.872 429.702 170.336C430.174 170.792 430.41 171.46 430.41 172.34V176H429.558V172.424C429.558 171.768 429.394 171.268 429.066 170.924C428.738 170.58 428.27 170.408 427.662 170.408C426.982 170.408 426.442 170.612 426.042 171.02C425.65 171.42 425.454 171.976 425.454 172.688V176H424.602V169.688H425.418V170.852C425.65 170.468 425.97 170.172 426.378 169.964C426.794 169.748 427.274 169.64 427.818 169.64ZM435.327 176.06C434.719 176.06 434.171 175.924 433.683 175.652C433.195 175.372 432.811 174.988 432.531 174.5C432.251 174.012 432.111 173.46 432.111 172.844C432.111 172.228 432.251 171.676 432.531 171.188C432.811 170.7 433.195 170.32 433.683 170.048C434.171 169.776 434.719 169.64 435.327 169.64C435.935 169.64 436.483 169.776 436.971 170.048C437.459 170.32 437.839 170.7 438.111 171.188C438.391 171.676 438.531 172.228 438.531 172.844C438.531 173.46 438.391 174.012 438.111 174.5C437.839 174.988 437.459 175.372 436.971 175.652C436.483 175.924 435.935 176.06 435.327 176.06ZM435.327 175.304C435.775 175.304 436.175 175.204 436.527 175.004C436.887 174.796 437.167 174.504 437.367 174.128C437.567 173.752 437.667 173.324 437.667 172.844C437.667 172.364 437.567 171.936 437.367 171.56C437.167 171.184 436.887 170.896 436.527 170.696C436.175 170.488 435.775 170.384 435.327 170.384C434.879 170.384 434.475 170.488 434.115 170.696C433.763 170.896 433.483 171.184 433.275 171.56C433.075 171.936 432.975 172.364 432.975 172.844C432.975 173.324 433.075 173.752 433.275 174.128C433.483 174.504 433.763 174.796 434.115 175.004C434.475 175.204 434.879 175.304 435.327 175.304ZM449.358 169.688L446.97 176H446.166L444.174 170.828L442.182 176H441.378L439.002 169.688H439.818L441.798 175.052L443.826 169.688H444.558L446.574 175.052L448.578 169.688H449.358ZM461.654 169.64C462.446 169.64 463.066 169.868 463.514 170.324C463.97 170.78 464.198 171.452 464.198 172.34V176H463.346V172.424C463.346 171.768 463.186 171.268 462.866 170.924C462.554 170.58 462.11 170.408 461.534 170.408C460.878 170.408 460.362 170.612 459.986 171.02C459.61 171.42 459.422 171.976 459.422 172.688V176H458.57V172.424C458.57 171.768 458.41 171.268 458.09 170.924C457.778 170.58 457.33 170.408 456.746 170.408C456.098 170.408 455.582 170.612 455.198 171.02C454.822 171.42 454.634 171.976 454.634 172.688V176H453.782V169.688H454.598V170.84C454.822 170.456 455.134 170.16 455.534 169.952C455.934 169.744 456.394 169.64 456.914 169.64C457.442 169.64 457.898 169.752 458.282 169.976C458.674 170.2 458.966 170.532 459.158 170.972C459.39 170.556 459.722 170.232 460.154 170C460.594 169.76 461.094 169.64 461.654 169.64ZM469.112 176.06C468.504 176.06 467.956 175.924 467.468 175.652C466.98 175.372 466.596 174.988 466.316 174.5C466.036 174.012 465.896 173.46 465.896 172.844C465.896 172.228 466.036 171.676 466.316 171.188C466.596 170.7 466.98 170.32 467.468 170.048C467.956 169.776 468.504 169.64 469.112 169.64C469.72 169.64 470.268 169.776 470.756 170.048C471.244 170.32 471.624 170.7 471.896 171.188C472.176 171.676 472.316 172.228 472.316 172.844C472.316 173.46 472.176 174.012 471.896 174.5C471.624 174.988 471.244 175.372 470.756 175.652C470.268 175.924 469.72 176.06 469.112 176.06ZM469.112 175.304C469.56 175.304 469.96 175.204 470.312 175.004C470.672 174.796 470.952 174.504 471.152 174.128C471.352 173.752 471.452 173.324 471.452 172.844C471.452 172.364 471.352 171.936 471.152 171.56C470.952 171.184 470.672 170.896 470.312 170.696C469.96 170.488 469.56 170.384 469.112 170.384C468.664 170.384 468.26 170.488 467.9 170.696C467.548 170.896 467.268 171.184 467.06 171.56C466.86 171.936 466.76 172.364 466.76 172.844C466.76 173.324 466.86 173.752 467.06 174.128C467.268 174.504 467.548 174.796 467.9 175.004C468.26 175.204 468.664 175.304 469.112 175.304ZM474.871 170.924C475.071 170.5 475.367 170.18 475.759 169.964C476.159 169.748 476.651 169.64 477.235 169.64V170.468L477.031 170.456C476.367 170.456 475.847 170.66 475.471 171.068C475.095 171.476 474.907 172.048 474.907 172.784V176H474.055V169.688H474.871V170.924ZM484.215 173.108H478.935C478.983 173.764 479.235 174.296 479.691 174.704C480.147 175.104 480.723 175.304 481.419 175.304C481.811 175.304 482.171 175.236 482.499 175.1C482.827 174.956 483.111 174.748 483.351 174.476L483.831 175.028C483.551 175.364 483.199 175.62 482.775 175.796C482.359 175.972 481.899 176.06 481.395 176.06C480.747 176.06 480.171 175.924 479.667 175.652C479.171 175.372 478.783 174.988 478.503 174.5C478.223 174.012 478.083 173.46 478.083 172.844C478.083 172.228 478.215 171.676 478.479 171.188C478.751 170.7 479.119 170.32 479.583 170.048C480.055 169.776 480.583 169.64 481.167 169.64C481.751 169.64 482.275 169.776 482.739 170.048C483.203 170.32 483.567 170.7 483.831 171.188C484.095 171.668 484.227 172.22 484.227 172.844L484.215 173.108ZM481.167 170.372C480.559 170.372 480.047 170.568 479.631 170.96C479.223 171.344 478.991 171.848 478.935 172.472H483.411C483.355 171.848 483.119 171.344 482.703 170.96C482.295 170.568 481.783 170.372 481.167 170.372ZM491.31 169.64C492.134 169.64 492.766 169.848 493.206 170.264C493.646 170.672 493.866 171.28 493.866 172.088V176H493.05V175.016C492.858 175.344 492.574 175.6 492.198 175.784C491.83 175.968 491.39 176.06 490.878 176.06C490.174 176.06 489.614 175.892 489.198 175.556C488.782 175.22 488.574 174.776 488.574 174.224C488.574 173.688 488.766 173.256 489.15 172.928C489.542 172.6 490.162 172.436 491.01 172.436H493.014V172.052C493.014 171.508 492.862 171.096 492.558 170.816C492.254 170.528 491.81 170.384 491.226 170.384C490.826 170.384 490.442 170.452 490.074 170.588C489.706 170.716 489.39 170.896 489.126 171.128L488.742 170.492C489.062 170.22 489.446 170.012 489.894 169.868C490.342 169.716 490.814 169.64 491.31 169.64ZM491.01 175.388C491.49 175.388 491.902 175.28 492.246 175.064C492.59 174.84 492.846 174.52 493.014 174.104V173.072H491.034C489.954 173.072 489.414 173.448 489.414 174.2C489.414 174.568 489.554 174.86 489.834 175.076C490.114 175.284 490.506 175.388 491.01 175.388ZM499.432 169.64C500.024 169.64 500.56 169.776 501.04 170.048C501.52 170.312 501.896 170.688 502.168 171.176C502.44 171.664 502.576 172.22 502.576 172.844C502.576 173.468 502.44 174.024 502.168 174.512C501.896 175 501.52 175.38 501.04 175.652C500.56 175.924 500.024 176.06 499.432 176.06C498.904 176.06 498.428 175.948 498.004 175.724C497.588 175.5 497.252 175.176 496.996 174.752V176H496.18V167.096H497.032V170.888C497.296 170.48 497.632 170.172 498.04 169.964C498.456 169.748 498.92 169.64 499.432 169.64ZM499.372 175.304C499.812 175.304 500.212 175.204 500.572 175.004C500.932 174.796 501.212 174.504 501.412 174.128C501.62 173.752 501.724 173.324 501.724 172.844C501.724 172.364 501.62 171.936 501.412 171.56C501.212 171.184 500.932 170.896 500.572 170.696C500.212 170.488 499.812 170.384 499.372 170.384C498.924 170.384 498.52 170.488 498.16 170.696C497.808 170.896 497.528 171.184 497.32 171.56C497.12 171.936 497.02 172.364 497.02 172.844C497.02 173.324 497.12 173.752 497.32 174.128C497.528 174.504 497.808 174.796 498.16 175.004C498.52 175.204 498.924 175.304 499.372 175.304ZM506.893 176.06C506.285 176.06 505.737 175.924 505.249 175.652C504.761 175.372 504.377 174.988 504.097 174.5C503.817 174.012 503.677 173.46 503.677 172.844C503.677 172.228 503.817 171.676 504.097 171.188C504.377 170.7 504.761 170.32 505.249 170.048C505.737 169.776 506.285 169.64 506.893 169.64C507.501 169.64 508.049 169.776 508.537 170.048C509.025 170.32 509.405 170.7 509.677 171.188C509.957 171.676 510.097 172.228 510.097 172.844C510.097 173.46 509.957 174.012 509.677 174.5C509.405 174.988 509.025 175.372 508.537 175.652C508.049 175.924 507.501 176.06 506.893 176.06ZM506.893 175.304C507.341 175.304 507.741 175.204 508.093 175.004C508.453 174.796 508.733 174.504 508.933 174.128C509.133 173.752 509.233 173.324 509.233 172.844C509.233 172.364 509.133 171.936 508.933 171.56C508.733 171.184 508.453 170.896 508.093 170.696C507.741 170.488 507.341 170.384 506.893 170.384C506.445 170.384 506.041 170.488 505.681 170.696C505.329 170.896 505.049 171.184 504.841 171.56C504.641 171.936 504.541 172.364 504.541 172.844C504.541 173.324 504.641 173.752 504.841 174.128C505.049 174.504 505.329 174.796 505.681 175.004C506.041 175.204 506.445 175.304 506.893 175.304ZM517.524 169.688V176H516.708V174.848C516.484 175.232 516.176 175.532 515.784 175.748C515.392 175.956 514.944 176.06 514.44 176.06C513.616 176.06 512.964 175.832 512.484 175.376C512.012 174.912 511.776 174.236 511.776 173.348V169.688H512.628V173.264C512.628 173.928 512.792 174.432 513.12 174.776C513.448 175.12 513.916 175.292 514.524 175.292C515.188 175.292 515.712 175.092 516.096 174.692C516.48 174.284 516.672 173.72 516.672 173V169.688H517.524ZM523.235 175.616C523.075 175.76 522.875 175.872 522.635 175.952C522.403 176.024 522.159 176.06 521.903 176.06C521.311 176.06 520.855 175.9 520.535 175.58C520.215 175.26 520.055 174.808 520.055 174.224V170.408H518.927V169.688H520.055V168.308H520.907V169.688H522.827V170.408H520.907V174.176C520.907 174.552 520.999 174.84 521.183 175.04C521.375 175.232 521.647 175.328 521.999 175.328C522.175 175.328 522.343 175.3 522.503 175.244C522.671 175.188 522.815 175.108 522.935 175.004L523.235 175.616ZM535.798 169.64C536.59 169.64 537.21 169.868 537.658 170.324C538.114 170.78 538.342 171.452 538.342 172.34V176H537.49V172.424C537.49 171.768 537.33 171.268 537.01 170.924C536.698 170.58 536.254 170.408 535.678 170.408C535.022 170.408 534.506 170.612 534.13 171.02C533.754 171.42 533.566 171.976 533.566 172.688V176H532.714V172.424C532.714 171.768 532.554 171.268 532.234 170.924C531.922 170.58 531.474 170.408 530.89 170.408C530.242 170.408 529.726 170.612 529.342 171.02C528.966 171.42 528.778 171.976 528.778 172.688V176H527.926V169.688H528.742V170.84C528.966 170.456 529.278 170.16 529.678 169.952C530.078 169.744 530.538 169.64 531.058 169.64C531.586 169.64 532.042 169.752 532.426 169.976C532.818 170.2 533.11 170.532 533.302 170.972C533.534 170.556 533.866 170.232 534.298 170C534.738 169.76 535.238 169.64 535.798 169.64ZM546.172 173.108H540.892C540.94 173.764 541.192 174.296 541.648 174.704C542.104 175.104 542.68 175.304 543.376 175.304C543.768 175.304 544.128 175.236 544.456 175.1C544.784 174.956 545.068 174.748 545.308 174.476L545.788 175.028C545.508 175.364 545.156 175.62 544.732 175.796C544.316 175.972 543.856 176.06 543.352 176.06C542.704 176.06 542.128 175.924 541.624 175.652C541.128 175.372 540.74 174.988 540.46 174.5C540.18 174.012 540.04 173.46 540.04 172.844C540.04 172.228 540.172 171.676 540.436 171.188C540.708 170.7 541.076 170.32 541.54 170.048C542.012 169.776 542.54 169.64 543.124 169.64C543.708 169.64 544.232 169.776 544.696 170.048C545.16 170.32 545.524 170.7 545.788 171.188C546.052 171.668 546.184 172.22 546.184 172.844L546.172 173.108ZM543.124 170.372C542.516 170.372 542.004 170.568 541.588 170.96C541.18 171.344 540.948 171.848 540.892 172.472H545.368C545.312 171.848 545.076 171.344 544.66 170.96C544.252 170.568 543.74 170.372 543.124 170.372Z" fill="white"/>
</g>
<defs>
<clipPath id="clip0">
<rect width="905" height="286" fill="white"/>
</clipPath>
</defs>
</svg>
